<svg width="77" height="95" viewBox="0 0 77 95" fill="none" xmlns="http://www.w3.org/2000/svg">
<path d="M55.4431 0.845085C51.0869 1.34813 44.9219 5.19055 41.8608 9.30055C40.0948 11.6552 39.0566 13.9029 38.1575 17.2851L37.708 18.9762L37.7294 20.7743C37.7508 21.759 37.8043 22.6795 37.8579 22.8293C37.997 23.1825 38.2646 23.236 40.1483 23.2467C41.711 23.2574 41.8073 23.2467 43.1452 22.8507C46.72 21.8125 49.3423 20.2498 51.2046 18.0343C51.6542 17.4884 52.3285 16.7606 52.6817 16.3967C53.859 15.2408 55.3681 12.672 56.203 10.4458C57.0378 8.20883 57.4124 6.13243 57.5195 3.17836L57.5837 1.28391L57.3054 1.00563C56.995 0.695241 56.8238 0.684538 55.4431 0.845085Z" fill="white"/>
<path d="M54.4477 22.9686C52.3285 23.0756 46.6237 24.6597 42.5244 26.2652C40.0413 27.2392 40.0413 27.2392 39.5489 27.3248C38.6927 27.4639 36.5949 26.8538 32.9879 25.3982C31.0721 24.6383 29.1027 24.0603 26.1914 23.3967C24.9713 23.1292 22.9484 23.097 22.0707 23.3432C21.7175 23.4395 20.6044 23.6643 19.5983 23.8356C17.4363 24.2209 16.2161 24.5955 14.5893 25.3982C9.67652 27.7957 6.32644 31.2421 3.67207 36.6365C2.49473 39.0126 1.62777 41.3352 0.985586 43.8076C0.033008 47.4788 0.0116018 54.5214 0.942773 58.792C1.0498 59.3164 1.14613 59.9372 1.14613 60.1834C1.14613 60.6971 1.24246 61.0824 2.14152 64.6252C2.97637 67.9003 2.89074 67.6327 4.48551 71.6357C6.72246 77.2548 7.42887 78.4964 11.9991 84.8005C13.8721 87.38 14.8247 88.5573 16.2054 89.9595C17.6503 91.4365 18.817 92.2927 20.4653 93.1062C22.3276 94.0159 23.1411 94.2193 24.8535 94.2086C27.0477 94.2086 28.8137 93.7591 32.1745 92.3462C34.2937 91.4579 34.4328 91.4151 38.286 90.623C39.4419 90.3769 40.5122 90.3983 42.1391 90.6659C42.6957 90.7515 43.5305 90.8799 43.98 90.9441C44.8898 91.0726 45.8103 91.3723 48.1864 92.3248C51.0548 93.4808 53.0777 93.9945 55.1969 94.123C58.2794 94.3156 61.2549 92.9456 64.4337 89.8952C67.6767 86.7592 70.7057 82.4673 73.7668 76.6769C74.591 75.1142 75.9074 71.914 76.1322 70.9507C76.2285 70.5654 76.3891 70.0838 76.5068 69.8911C76.6138 69.6984 76.7102 69.4309 76.7102 69.3131C76.7102 68.9278 75.9288 68.3177 74.5481 67.622C71.9473 66.2841 69.3892 63.9937 67.666 61.4142C66.4352 59.5626 65.1936 56.7905 64.8832 55.1529C64.3588 52.4557 64.2089 49.5016 64.5086 47.4466C64.5835 46.9115 64.8511 45.7877 65.108 44.9314C66.2104 41.2174 66.9703 39.7297 68.6935 37.8888C69.218 37.3429 69.6461 36.8399 69.6461 36.797C69.6461 36.6151 72.2684 34.4209 72.9106 34.0677C73.2638 33.8644 73.7133 33.554 73.906 33.3613C74.4946 32.7834 74.409 32.5586 72.932 30.8247C70.9519 28.5021 68.4581 26.597 65.5254 25.1734C63.6952 24.2851 62.4322 23.8463 60.6662 23.4824C58.8574 23.097 56.1602 22.8723 54.4477 22.9686Z" fill="white"/>
</svg>
