<svg xmlns="http://www.w3.org/2000/svg" width="248" height="97" fill="none" viewBox="0 0 248 97"><path fill="#fff" d="M87.7273 52.0091C87.7273 52.3721 87.3645 52.7351 87.0018 52.7351H73.3391C73.7018 56.1231 76.2409 59.2691 79.8682 59.2691C82.2864 59.2691 84.1 58.3011 85.5509 56.3651C85.6718 56.1231 85.9136 56.0021 86.1555 56.0021C86.5182 56.0021 86.8809 56.2441 86.8809 56.7281C86.8809 56.8491 86.8809 56.9701 86.76 57.0911C85.43 59.5111 82.6491 60.7211 79.9891 60.7211C75.3945 60.7211 72.13 56.6071 72.13 52.1301C72.13 47.6531 75.3945 43.5391 79.9891 43.5391C84.5836 43.5391 87.7273 47.5321 87.7273 52.0091ZM86.2764 51.2831C86.0345 47.8951 83.3745 44.7491 79.7473 44.7491C76.12 44.7491 73.5809 47.8951 73.2182 51.2831H86.2764Z"/><path fill="#fff" d="M104.413 43.7809C104.776 43.7809 105.138 44.1439 105.138 44.5069C105.138 44.8699 104.896 45.2329 104.413 45.2329H100.786V59.6319C100.786 59.9949 100.544 60.3579 100.06 60.3579C99.6973 60.3579 99.3346 59.9949 99.3346 59.6319V45.1119H95.8282C95.4655 45.1119 95.1028 44.8699 95.1028 44.3859C95.1028 44.0229 95.3446 43.6599 95.8282 43.6599H99.3346V38.3359C99.3346 37.9729 99.5764 37.6099 100.06 37.6099C100.423 37.6099 100.786 37.8519 100.786 38.3359V43.6599H104.413V43.7809Z"/><path fill="#fff" d="M126.902 50.7988V59.5108C126.902 59.8738 126.539 60.2368 126.176 60.2368C125.814 60.2368 125.451 59.9948 125.451 59.5108V50.7988C125.451 47.8948 123.758 44.8698 120.494 44.8698C116.262 44.8698 114.448 48.4998 114.69 52.3718C114.69 52.4928 114.69 52.8558 114.69 52.9768V59.5108C114.69 59.8738 114.448 60.2368 113.965 60.2368C113.602 60.2368 113.239 59.9948 113.239 59.5108V30.7128C113.239 30.3498 113.481 29.9868 113.965 29.9868C114.327 29.9868 114.69 30.3498 114.69 30.7128V46.9268C115.899 44.8698 117.955 43.4178 120.494 43.4178C124.605 43.4178 126.902 47.0478 126.902 50.7988Z"/><path fill="#fff" d="M151.446 52.0087C151.446 52.3717 151.084 52.7347 150.721 52.7347H137.058C137.421 56.1227 139.96 59.2687 143.587 59.2687C146.005 59.2687 147.819 58.3007 149.27 56.3647C149.391 56.1227 149.633 56.0017 149.875 56.0017C150.237 56.0017 150.6 56.2437 150.6 56.7277C150.6 56.8487 150.6 56.9697 150.479 57.0907C149.149 59.5107 146.368 60.7207 143.708 60.7207C139.114 60.7207 135.849 56.6067 135.849 52.1297C135.849 47.6527 139.114 43.5387 143.708 43.5387C148.182 43.4177 151.446 47.5317 151.446 52.0087ZM149.995 51.2827C149.754 47.8947 147.094 44.7487 143.466 44.7487C139.839 44.7487 137.3 47.8947 136.937 51.2827H149.995Z"/><path fill="#fff" d="M168.374 44.3858C168.374 44.8698 168.132 45.1118 167.769 45.1118C163.779 45.7168 161.965 48.9838 161.965 52.8558V59.3898C161.965 59.7528 161.724 60.1158 161.24 60.1158C160.877 60.1158 160.515 59.8738 160.515 59.3898V44.5068C160.515 44.1438 160.756 43.7808 161.24 43.7808C161.603 43.7808 161.965 44.0228 161.965 44.5068V47.5318C163.054 45.5958 165.351 43.7808 167.769 43.7808C167.89 43.7808 168.374 44.0228 168.374 44.3858Z"/><path fill="#fff" d="M190.863 52.0087C190.863 52.3717 190.5 52.7347 190.137 52.7347H176.475C176.837 56.1227 179.376 59.2687 183.004 59.2687C185.422 59.2687 187.236 58.3007 188.686 56.3647C188.807 56.1227 189.049 56.0017 189.291 56.0017C189.654 56.0017 190.016 56.2437 190.016 56.7277C190.016 56.8487 190.016 56.9697 189.896 57.0907C188.566 59.5107 185.785 60.7207 183.125 60.7207C178.53 60.7207 175.266 56.6067 175.266 52.1297C175.266 47.6527 178.53 43.5387 183.125 43.5387C187.477 43.4177 190.863 47.5317 190.863 52.0087ZM189.412 51.2827C189.17 47.8947 186.51 44.7487 182.883 44.7487C179.256 44.7487 176.716 47.8947 176.354 51.2827H189.412Z"/><path fill="#fff" d="M212.989 44.5067V49.2257V59.5107C212.989 59.8737 212.626 60.2367 212.264 60.2367C211.901 60.2367 211.538 59.9947 211.538 59.5107V56.6067C210.45 58.9057 208.395 60.4787 205.856 60.4787C201.745 60.4787 199.568 56.9697 199.568 53.2187V44.3857C199.568 44.0227 199.81 43.6597 200.294 43.6597C200.656 43.6597 201.019 44.0227 201.019 44.3857V53.3397C201.019 56.2437 202.712 59.2687 205.976 59.2687C210.571 59.2687 211.659 54.9127 211.659 50.1937V44.6277C211.659 44.2647 211.901 43.9017 212.385 43.9017C212.626 43.9017 212.989 44.1437 212.989 44.5067Z"/><path fill="#fff" d="M247.69 50.6777V59.5107C247.69 59.8737 247.327 60.2367 246.965 60.2367C246.602 60.2367 246.239 59.9947 246.239 59.5107V50.6777C246.239 47.7737 244.546 44.8697 241.282 44.8697C237.171 44.8697 235.599 49.3467 235.599 52.7347V59.5107C235.599 59.8737 235.236 60.2367 234.874 60.2367C234.511 60.2367 234.148 59.9947 234.148 59.5107V50.6777C234.148 47.7737 232.455 44.8697 229.191 44.8697C224.959 44.8697 223.266 48.1367 223.387 52.4927C223.387 52.6137 223.387 52.7347 223.387 52.8557V59.5107C223.387 59.8737 223.145 60.2367 222.662 60.2367C222.299 60.2367 221.936 59.9947 221.936 59.5107V44.5067C221.936 44.1437 222.178 43.7807 222.662 43.7807C223.025 43.7807 223.387 44.0227 223.387 44.5067V47.0477C224.596 44.9907 226.652 43.5387 229.191 43.5387C231.972 43.5387 234.148 45.3537 234.995 47.8947C236.083 45.3537 238.38 43.5387 241.161 43.5387C245.393 43.4177 247.69 46.9267 247.69 50.6777Z"/><path fill="#8C8C8C" d="M0.310059 55.0342L29.9328 96.9002V72.5792L0.310059 55.0342Z"/><path fill="#393939" d="M0.310059 49.347L29.9328 67.013V35.916L0.310059 49.347Z"/><path fill="#8C8C8C" d="M0.310059 49.3471L29.9328 35.9161V0.100098L0.310059 49.3471Z"/><path fill="#343434" d="M59.6764 55.0342L29.9327 96.9002V72.5792L59.6764 55.0342Z"/><path fill="#151515" d="M59.6764 49.347L29.9327 67.013V35.916L59.6764 49.347Z"/><path fill="#343434" d="M59.6764 49.3471L29.9327 35.9161V0.100098L59.6764 49.3471Z"/></svg>