<svg width="242" height="59" viewBox="0 0 242 59" fill="none" xmlns="http://www.w3.org/2000/svg">
<g clip-path="url(#clip0_50_151)">
<path d="M41.8053 0H18.9998V30.5378H49.7751V7.90831C49.7751 3.52655 46.2211 0 41.8053 0V0ZM11.8918 0H7.96983C3.55398 0 0 3.52655 0 7.90831V11.8H11.8918V0ZM0 18.8531H11.8918V30.6531H0V18.8531ZM38.0092 49.3909H41.9312C46.347 49.3909 49.901 45.8643 49.901 41.4826V37.7158H38.0092V49.3909ZM18.9998 37.7158H30.8916V49.5158H18.9998V37.7158ZM0 37.7158V41.6075C0 45.9893 3.55398 49.5158 7.96983 49.5158H11.8918V37.7158H0ZM80.1825 3.1614H75.5245V46.3448H100.17V42.2129H80.1825V3.1614ZM115.122 14.5963C106.048 14.5963 99.6761 21.2842 99.6761 30.8933V31.9984C99.802 36.1303 101.642 40.0316 104.702 42.9432C107.646 45.6241 111.442 47.2 115.49 47.2H116.1C120.39 47.2 124.438 45.6145 127.624 42.9432L127.75 42.8182L125.668 39.4166L125.426 39.5415C122.85 41.8573 119.664 43.193 116.236 43.193C110.6 43.193 104.838 39.5415 104.47 31.393H128.011V31.1528C128.011 31.1528 128.137 29.6922 128.137 28.9619C128.108 20.1984 122.966 14.5963 115.122 14.5963ZM104.576 27.4917C105.554 22.0145 109.602 18.4879 114.87 18.4879C118.792 18.4879 123.082 20.8037 123.45 27.4917H104.576ZM155.087 18.2477V19.8332C153.121 16.5469 149.451 14.4809 145.645 14.4809H145.277C136.94 14.4809 131.178 21.0536 131.178 30.6627C131.178 40.3967 136.698 46.9598 144.909 46.9598C151.407 46.9598 154.351 43.0681 155.329 41.3673V46.1142H159.745V3.1614H155.213V18.2477H155.087ZM145.52 42.9432C139.758 42.9432 135.962 38.0809 135.962 30.778C135.962 23.7249 140.009 18.7378 145.645 18.7378C150.429 18.7378 155.203 22.5046 155.203 30.778C155.203 39.7818 150.178 42.9432 145.52 42.9432ZM186.589 18.8531V19.0933C185.727 17.6327 183.035 14.4713 176.537 14.4713C168.325 14.4713 162.931 20.6788 162.931 30.163C162.931 39.6472 168.567 46.095 176.905 46.095C181.437 46.095 184.507 44.5094 186.589 41.2327V45.4896C186.589 51.4472 182.793 54.8585 176.043 54.8585C173.225 54.8585 170.281 54.1282 167.705 52.7925L167.463 52.6676L165.749 56.4344L165.991 56.5593C169.177 58.1448 172.731 58.9904 176.169 58.9904C183.403 58.9904 191.121 55.3389 191.121 45.2397V15.3265H186.589V18.8531ZM177.515 42.0879C171.511 42.0879 167.589 37.466 167.589 30.2879C167.589 22.985 171.017 18.8531 176.905 18.8531C183.403 18.8531 186.463 22.6199 186.463 30.2879C186.589 37.8311 183.403 42.0879 177.515 42.0879ZM209.637 14.5963C200.563 14.5963 194.317 21.2842 194.317 30.778V31.8735C194.442 36.0054 196.282 39.9067 199.343 42.8182C202.286 45.4992 206.083 47.0751 210.13 47.0751H210.74C215.03 47.0751 219.078 45.4896 222.264 42.8182L222.39 42.6933L220.182 39.2917L219.94 39.4166C217.364 41.7324 214.178 43.0681 210.75 43.0681C205.114 43.0681 199.352 39.4166 198.984 31.2681H222.632V31.0278C222.632 31.0278 222.758 29.5673 222.758 28.837C222.758 20.1984 217.606 14.5963 209.637 14.5963ZM199.217 27.4917C200.195 22.0145 204.243 18.4879 209.511 18.4879C213.433 18.4879 217.723 20.8037 218.091 27.4917H199.217ZM241.884 15.2016C241.274 15.0767 240.78 15.0767 240.17 14.9614C235.88 14.9614 232.326 17.6423 230.486 22.1394V15.2016H225.954L226.08 45.9796V46.2199H230.738V33.2091C230.738 31.2585 230.98 29.1925 231.6 27.3668C233.071 22.6199 236.383 19.5834 240.305 19.5834C240.799 19.5834 241.283 19.5834 241.777 19.7083H242.019V15.2112L241.884 15.2016Z" fill="white"/>
</g>
<defs>
<clipPath id="clip0_50_151">
<rect width="242" height="59" fill="white"/>
</clipPath>
</defs>
</svg>
