<svg width="258" height="59" viewBox="0 0 258 59" fill="none" xmlns="http://www.w3.org/2000/svg">
<path d="M59.0389 29.5C59.0389 45.7915 45.8217 59 29.5195 59C13.2172 59 0 45.7915 0 29.5C0 13.2085 13.2172 0 29.5195 0C45.8251 0 59.0389 13.2085 59.0389 29.5Z" fill="#2081E2"/>
<path d="M14.5637 30.4913L14.691 30.2913L22.3702 18.2861C22.4824 18.1103 22.7463 18.1285 22.8312 18.3194C24.1141 21.1926 25.2211 24.766 24.7025 26.9907C24.4811 27.906 23.8745 29.1456 23.1921 30.2913C23.1042 30.458 23.0071 30.6217 22.904 30.7793C22.8554 30.852 22.7736 30.8944 22.6856 30.8944H14.7881C14.5758 30.8944 14.4514 30.6641 14.5637 30.4913Z" fill="white"/>
<path d="M48.7924 32.7218V34.6221C48.7924 34.7312 48.7257 34.8282 48.6286 34.8706C48.0342 35.1252 45.9991 36.0587 45.153 37.2347C42.9936 40.2383 41.3437 44.533 37.6557 44.533H22.2701C16.8171 44.533 12.3982 40.1019 12.3982 34.6342V34.4585C12.3982 34.313 12.5164 34.1948 12.662 34.1948H21.239C21.4088 34.1948 21.5331 34.3524 21.518 34.5191C21.4573 35.0767 21.5604 35.6465 21.8243 36.1648C22.3338 37.1984 23.3892 37.8439 24.5296 37.8439H28.7756V34.5312H24.5781C24.3628 34.5312 24.2354 34.2826 24.3598 34.1069C24.4052 34.0371 24.4568 33.9645 24.5114 33.8826C24.9087 33.3189 25.4758 32.443 26.04 31.4458C26.4251 30.773 26.7981 30.0546 27.0984 29.3333C27.1591 29.203 27.2076 29.0696 27.2561 28.9392C27.338 28.7089 27.4229 28.4937 27.4836 28.2786C27.5443 28.0967 27.5927 27.9057 27.6413 27.7269C27.7838 27.1147 27.8445 26.4661 27.8445 25.7932C27.8445 25.5296 27.8324 25.2538 27.8081 24.9901C27.796 24.7022 27.7596 24.4142 27.7232 24.1263C27.6989 23.8717 27.6534 23.6201 27.6049 23.3564C27.5443 22.9715 27.4593 22.5897 27.3623 22.2047L27.3289 22.0593C27.2561 21.7955 27.1955 21.544 27.1106 21.2803C26.8709 20.4529 26.595 19.6467 26.3038 18.892C26.1977 18.5919 26.0763 18.304 25.955 18.0161C25.7761 17.5827 25.5941 17.1887 25.4273 16.8159C25.3424 16.6461 25.2696 16.4915 25.1968 16.334C25.1149 16.1551 25.03 15.9763 24.9451 15.8066C24.8844 15.6763 24.8147 15.555 24.7661 15.4338L24.2475 14.476C24.1747 14.3457 24.2961 14.1911 24.4386 14.2305L27.6838 15.1095H27.6929C27.6989 15.1095 27.702 15.1125 27.705 15.1125L28.1326 15.2307L28.6027 15.3641L28.7756 15.4126V13.485C28.7756 12.5545 29.5217 11.7998 30.4437 11.7998C30.9046 11.7998 31.3232 11.9877 31.6234 12.2938C31.9237 12.6 32.1117 13.0182 32.1117 13.485V16.3461L32.4575 16.443C32.4848 16.4522 32.512 16.4643 32.5363 16.4825C32.6213 16.5461 32.7425 16.64 32.8972 16.7553C33.0185 16.8522 33.149 16.9704 33.3066 17.0917C33.619 17.3432 33.9921 17.6675 34.4015 18.0404C34.5107 18.1343 34.6168 18.2313 34.7139 18.3283C35.2416 18.8193 35.833 19.3951 36.3972 20.0316C36.5548 20.2104 36.7095 20.3923 36.8672 20.5832C37.0249 20.7772 37.1918 20.9681 37.3373 21.1591C37.5284 21.4137 37.7346 21.6773 37.9136 21.9532C37.9985 22.0835 38.0955 22.2168 38.1774 22.3472C38.4079 22.6957 38.6111 23.0564 38.8052 23.4171C38.8871 23.5838 38.972 23.7656 39.0448 23.9444C39.2601 24.4263 39.43 24.9173 39.5391 25.4083C39.5725 25.5144 39.5968 25.6296 39.6089 25.7327V25.7569C39.6453 25.9023 39.6575 26.0569 39.6696 26.2145C39.7181 26.7177 39.6938 27.2208 39.5847 27.7269C39.5391 27.9421 39.4785 28.1452 39.4057 28.3604C39.3329 28.5665 39.2601 28.7817 39.1661 28.9847C38.9842 29.406 38.7688 29.8273 38.5141 30.2213C38.4322 30.3668 38.3351 30.5214 38.238 30.6669C38.1319 30.8214 38.0227 30.9669 37.9257 31.1094C37.7922 31.2912 37.6497 31.4821 37.5041 31.6519C37.3737 31.8307 37.2403 32.0095 37.0947 32.1671C36.8915 32.4066 36.6974 32.6339 36.4942 32.8521C36.3729 32.9946 36.2425 33.14 36.109 33.2704C35.9786 33.4158 35.8451 33.5461 35.7238 33.6674C35.5207 33.8705 35.3508 34.0281 35.2082 34.1584L34.8747 34.4645C34.8261 34.507 34.7624 34.5312 34.6957 34.5312H32.1117V37.8439H35.3629C36.0908 37.8439 36.7823 37.5863 37.3404 37.1135C37.5314 36.9468 38.3655 36.2255 39.3511 35.1374C39.3845 35.101 39.427 35.0737 39.4755 35.0616L48.4557 32.4672C48.6226 32.4187 48.7924 32.546 48.7924 32.7218Z" fill="white"/>
<path d="M87.8044 43.6578C85.1359 43.6578 82.6828 43.0601 80.4458 41.8649C78.2354 40.6696 76.4696 39.0067 75.1489 36.8761C73.8553 34.7195 73.2083 32.303 73.2083 29.6268C73.2083 26.9505 73.8553 24.547 75.1489 22.4164C76.4696 20.2858 78.2354 18.6228 80.4458 17.4276C82.6828 16.2324 85.1359 15.6348 87.8044 15.6348C90.473 15.6348 92.9125 16.2324 95.1229 17.4276C97.3605 18.6228 99.1122 20.2858 100.379 22.4164C101.673 24.547 102.32 26.9505 102.32 29.6268C102.32 32.303 101.673 34.7195 100.379 36.8761C99.0856 39.0067 97.3333 40.6696 95.1229 41.8649C92.9125 43.0601 90.473 43.6578 87.8044 43.6578ZM87.8044 37.5776C90.0686 37.5776 91.8746 36.8501 93.2224 35.395C94.5975 33.94 95.2847 32.0172 95.2847 29.6268C95.2847 27.2103 94.5975 25.2876 93.2224 23.8585C91.8746 22.4034 90.0686 21.6759 87.8044 21.6759C85.5131 21.6759 83.6806 22.3904 82.3056 23.8195C80.9577 25.2486 80.2841 27.1843 80.2841 29.6268C80.2841 32.0432 80.9577 33.979 82.3056 35.434C83.6806 36.8631 85.5131 37.5776 87.8044 37.5776Z" fill="white"/>
<path d="M113.081 24.716C113.754 23.7027 114.684 22.8842 115.87 22.2606C117.056 21.637 118.444 21.3252 120.035 21.3252C121.895 21.3252 123.58 21.7799 125.089 22.6893C126.598 23.5988 127.784 24.8979 128.647 26.5868C129.537 28.2758 129.981 30.2375 129.981 32.4721C129.981 34.7066 129.537 36.6814 128.647 38.3963C127.784 40.0852 126.598 41.3973 125.089 42.3327C123.58 43.2422 121.895 43.6968 120.035 43.6968C118.472 43.6968 117.084 43.3851 115.87 42.7614C114.684 42.1379 113.754 41.3324 113.081 40.345V49.8549H106.167V21.637H113.081V24.716ZM122.946 32.4721C122.946 30.8092 122.461 29.51 121.49 28.5746C120.547 27.6132 119.374 27.1325 117.973 27.1325C116.598 27.1325 115.426 27.6132 114.455 28.5746C113.512 29.5359 113.04 30.8481 113.04 32.511C113.04 34.174 113.512 35.4861 114.455 36.4475C115.426 37.4089 116.598 37.8896 117.973 37.8896C119.348 37.8896 120.52 37.4089 121.49 36.4475C122.461 35.4601 122.946 34.135 122.946 32.4721Z" fill="white"/>
<path d="M154.876 32.1603C154.876 32.7839 154.836 33.4334 154.755 34.109H139.107C139.215 35.4601 139.66 36.4995 140.442 37.227C141.251 37.9286 142.234 38.2793 143.394 38.2793C145.119 38.2793 146.318 37.5778 146.992 36.1747H154.351C153.973 37.6038 153.286 38.8899 152.288 40.0332C151.318 41.1765 150.092 42.0729 148.609 42.7225C147.127 43.372 145.469 43.6968 143.636 43.6968C141.426 43.6968 139.458 43.2422 137.733 42.3327C136.008 41.4233 134.66 40.1241 133.689 38.4352C132.719 36.7463 132.234 34.7716 132.234 32.511C132.234 30.2505 132.706 28.2757 133.649 26.5868C134.619 24.8979 135.967 23.5988 137.692 22.6893C139.417 21.7799 141.399 21.3252 143.636 21.3252C145.82 21.3252 147.76 21.7669 149.458 22.6504C151.157 23.5338 152.477 24.794 153.421 26.4309C154.391 28.0679 154.876 29.9777 154.876 32.1603ZM147.801 30.4064C147.801 29.2631 147.397 28.3537 146.588 27.6781C145.779 27.0026 144.768 26.6648 143.555 26.6648C142.396 26.6648 141.412 26.9896 140.603 27.6391C139.822 28.2887 139.337 29.2111 139.148 30.4064H147.801Z" fill="white"/>
<path d="M172.271 21.4033C174.913 21.4033 177.015 22.2347 178.579 23.8977C180.169 25.5346 180.964 27.7952 180.964 30.6794V43.3852H174.09V31.5757C174.09 30.1207 173.7 28.9904 172.918 28.185C172.136 27.3794 171.085 26.9767 169.765 26.9767C168.443 26.9767 167.392 27.3794 166.611 28.185C165.829 28.9904 165.438 30.1207 165.438 31.5757V43.3852H158.524V21.6371H165.438V24.5213C166.139 23.5599 167.082 22.8064 168.269 22.2608C169.454 21.6891 170.788 21.4033 172.271 21.4033Z" fill="white"/>
<path d="M196.039 43.6578C193.963 43.6578 192.103 43.333 190.459 42.6834C188.815 42.0338 187.494 41.0724 186.497 39.7992C185.526 38.5261 185.014 36.9931 184.96 35.2002H192.319C192.427 36.2136 192.79 36.9931 193.411 37.5387C194.031 38.0584 194.839 38.3182 195.837 38.3182C196.861 38.3182 197.669 38.0973 198.263 37.6556C198.855 37.1879 199.152 36.5513 199.152 35.7459C199.152 35.0702 198.91 34.5116 198.424 34.0699C197.966 33.6282 197.387 33.2644 196.686 32.9786C196.012 32.6928 195.042 32.368 193.775 32.0043C191.941 31.4586 190.445 30.9129 189.286 30.3673C188.127 29.8217 187.13 29.0161 186.294 27.9508C185.459 26.8855 185.041 25.4954 185.041 23.7805C185.041 21.2342 185.998 19.2465 187.912 17.8174C189.825 16.3623 192.319 15.6348 195.392 15.6348C198.519 15.6348 201.039 16.3623 202.953 17.8174C204.867 19.2465 205.891 21.2471 206.026 23.8195H198.545C198.492 22.9361 198.155 22.2475 197.535 21.7538C196.915 21.2342 196.12 20.9743 195.149 20.9743C194.314 20.9743 193.64 21.1952 193.127 21.6369C192.616 22.0526 192.359 22.6633 192.359 23.4687C192.359 24.3521 192.79 25.0407 193.654 25.5344C194.516 26.0281 195.863 26.5607 197.696 27.1324C199.53 27.73 201.012 28.3016 202.144 28.8473C203.303 29.3929 204.301 30.1854 205.136 31.2247C205.972 32.2641 206.389 33.6022 206.389 35.2392C206.389 36.7982 205.972 38.2142 205.136 39.4874C204.328 40.7606 203.142 41.7739 201.578 42.5275C200.015 43.281 198.168 43.6578 196.039 43.6578Z" fill="white"/>
<path d="M231.912 32.1603C231.912 32.7839 231.872 33.4334 231.791 34.109H216.143C216.251 35.4601 216.696 36.4995 217.477 37.227C218.286 37.9286 219.271 38.2793 220.429 38.2793C222.155 38.2793 223.354 37.5778 224.028 36.1747H231.386C231.009 37.6038 230.322 38.8899 229.325 40.0332C228.354 41.1765 227.128 42.0729 225.645 42.7225C224.162 43.372 222.505 43.6968 220.672 43.6968C218.462 43.6968 216.494 43.2422 214.769 42.3327C213.044 41.4233 211.696 40.1241 210.725 38.4352C209.755 36.7463 209.27 34.7716 209.27 32.511C209.27 30.2505 209.742 28.2757 210.685 26.5868C211.655 24.8979 213.003 23.5988 214.728 22.6893C216.453 21.7799 218.434 21.3252 220.672 21.3252C222.855 21.3252 224.796 21.7669 226.494 22.6504C228.192 23.5338 229.513 24.794 230.457 26.4309C231.427 28.0679 231.912 29.9777 231.912 32.1603ZM224.837 30.4064C224.837 29.2631 224.432 28.3537 223.623 27.6781C222.815 27.0026 221.804 26.6648 220.591 26.6648C219.432 26.6648 218.448 26.9896 217.639 27.6391C216.858 28.2887 216.372 29.2111 216.184 30.4064H224.837Z" fill="white"/>
<path d="M234.185 32.4721C234.185 30.2375 234.616 28.2757 235.479 26.5868C236.368 24.8979 237.568 23.5988 239.077 22.6893C240.587 21.7799 242.271 21.3252 244.132 21.3252C245.722 21.3252 247.11 21.637 248.296 22.2606C249.509 22.8842 250.439 23.7027 251.086 24.716V21.637H258V43.3851H251.086V40.306C250.412 41.3194 249.469 42.1379 248.256 42.7614C247.07 43.3851 245.682 43.6968 244.091 43.6968C242.258 43.6968 240.587 43.2422 239.077 42.3327C237.568 41.3973 236.368 40.0852 235.479 38.3963C234.616 36.6814 234.185 34.7066 234.185 32.4721ZM251.086 32.511C251.086 30.8481 250.601 29.5359 249.631 28.5746C248.687 27.6132 247.528 27.1325 246.153 27.1325C244.778 27.1325 243.606 27.6132 242.636 28.5746C241.692 29.51 241.221 30.8092 241.221 32.4721C241.221 34.135 241.692 35.4601 242.636 36.4475C243.606 37.4089 244.778 37.8896 246.153 37.8896C247.528 37.8896 248.687 37.4089 249.631 36.4475C250.601 35.4861 251.086 34.174 251.086 32.511Z" fill="white"/>
</svg>
