<svg width="240" height="65" viewBox="0 0 240 65" fill="none" xmlns="http://www.w3.org/2000/svg">
<path d="M25.2633 24.375L21.2212 23.0547V35.8516C21.2212 39.1016 23.3433 42.0469 26.3749 43.0625L35.3686 46.1094V42.0469L27.9917 39.6094C26.3749 39.1016 25.2633 37.4766 25.2633 35.75V24.375Z" fill="white"/>
<path d="M13.1368 20.3125L9.09473 18.9922V43.875C9.09473 47.125 11.2168 50.0703 14.2484 51.0859L35.3684 58.0938V54.0312L15.8653 47.6328C14.2484 47.125 13.1368 45.5 13.1368 43.7734V20.3125Z" fill="white"/>
<path d="M12.8337 10.0547L9.09473 12.8984L38.7031 22.8516C40.32 23.3594 41.4316 24.9844 41.4316 26.7109V60.6328L45.4737 57.5859V26.5078C45.4737 23.2578 43.3516 20.3125 40.32 19.2969L12.8337 10.0547Z" fill="white"/>
<path d="M22.1305 3.04688L18.3916 5.89063L48.7074 16.0469C50.3242 16.5547 51.4358 18.1797 51.4358 19.9063V53.0156L55.4779 49.9688V19.7031C55.4779 16.4531 53.3558 13.5078 50.3242 12.4922L22.1305 3.04688Z" fill="white"/>
<path d="M83.3545 36.8661C83.3545 41.8995 87.5987 45.9092 93.8377 45.9092C99.1854 45.9092 103.854 42.8806 104.109 37.5912C104.363 34.1361 102.666 30.425 96.1296 28.6334L92.522 27.567C89.3813 26.7139 89.0417 25.1356 89.0417 24.1972C89.0417 22.107 90.9941 20.742 93.4133 20.742C96.1296 20.742 97.7848 22.2776 97.7848 24.5811H103.217C103.217 19.0784 99.0156 15.7086 93.4982 15.7086C88.108 15.7086 83.6516 19.1637 83.6516 24.3251C83.6516 26.9272 84.6702 30.6383 91.0365 32.5151L94.6441 33.4536C97.4877 34.2214 98.8034 35.5011 98.6761 37.4632C98.5488 39.4681 96.7662 41.0037 93.8377 41.0037C90.697 41.0037 88.872 38.9989 88.7871 36.8661H83.3545ZM114.645 25.5195H109.468V55.1231H114.645V42.7953C115.706 44.8001 118.253 45.8665 120.842 45.8665C126.02 45.8665 130.519 41.8142 130.519 35.4584C130.519 29.1879 126.02 25.0929 120.842 25.0929C118.253 25.0929 115.706 26.2447 114.645 28.2068V25.5195ZM114.73 35.5437C114.73 32.2165 117.15 30.0837 119.993 30.0837C122.837 30.0837 125.214 32.2592 125.214 35.5437C125.214 38.7856 122.837 40.9184 119.993 40.9184C117.277 40.9184 114.73 38.9989 114.73 35.5437ZM151.039 45.44H156.216V25.5195H151.039V27.9936C149.595 25.7754 146.667 25.0929 144.884 25.0929C139.664 25.0929 134.783 29.06 134.783 35.4584C134.783 41.8142 139.664 45.8239 144.884 45.8239C146.837 45.8239 149.765 44.9281 151.039 42.8806V45.44ZM140.131 35.4584C140.131 32.2165 142.762 30.0837 145.606 30.0837C148.322 30.0837 151.039 32.0033 151.039 35.4584C151.039 38.8709 148.407 40.8331 145.606 40.8331C142.762 40.8331 140.131 38.6576 140.131 35.4584ZM169.724 17.9267H164.588V25.5195H160.981V29.6998H164.588V45.44H169.724V29.6998H173.925V25.5195H169.724V17.9267ZM183.797 25.5195H178.662V45.44H183.797V25.5195ZM177.898 17.7987C177.898 19.5903 179.426 20.9553 181.251 20.9553C183.033 20.9553 184.519 19.5903 184.519 17.7987C184.519 16.0498 183.033 14.6848 181.251 14.6848C179.426 14.6848 177.898 16.0498 177.898 17.7987ZM205.519 45.44H210.696V25.5195H205.519V27.9936C204.076 25.7754 201.147 25.0929 199.364 25.0929C194.144 25.0929 189.263 29.06 189.263 35.4584C189.263 41.8142 194.144 45.8239 199.364 45.8239C201.317 45.8239 204.245 44.9281 205.519 42.8806V45.44ZM194.611 35.4584C194.611 32.2165 197.242 30.0837 200.086 30.0837C202.802 30.0837 205.519 32.0033 205.519 35.4584C205.519 38.8709 202.887 40.8331 200.086 40.8331C197.242 40.8331 194.611 38.6576 194.611 35.4584ZM217.413 45.44H222.591V14.6848H217.413V45.44Z" fill="white"/>
</svg>
