<svg width="24" height="17" viewBox="0 0 24 17" fill="none" xmlns="http://www.w3.org/2000/svg">
<path d="M21.0386 2.12283C18.0977 -0.0607472 15.2803 0.000422745 15.2803 0.000422745L14.9923 0.326831C18.4885 1.36773 20.1132 2.89824 20.1132 2.89824C15.1113 0.165382 8.73988 0.184936 3.53713 2.89824C3.53713 2.89824 5.22347 1.286 8.92532 0.245104L8.71967 0.000172185C8.71967 0.000172185 5.92276 -0.0609983 2.96138 2.12258C2.96138 2.12258 0 7.4083 0 13.9184C0 13.9184 1.72751 16.8571 6.27266 17C6.27266 17 7.03359 16.102 7.65052 15.3266C5.03854 14.5512 4.0515 12.9389 4.0515 12.9389C5.69235 13.9578 7.35166 14.5956 9.41921 15.0002C12.7833 15.6873 16.9677 14.9809 20.0928 12.9389C20.0928 12.9389 19.0645 14.592 16.3704 15.3471C16.9874 16.1023 17.7278 16.9797 17.7278 16.9797C22.2725 16.837 24 13.8984 24 13.9187C24 7.40855 21.0386 2.12283 21.0386 2.12283ZM8.16438 12.0209C7.01262 12.0209 6.06676 11.0209 6.06676 9.77589C6.15089 6.79459 10.1991 6.80387 10.2623 9.77589C10.262 11.0209 9.3366 12.0209 8.16438 12.0209ZM15.6709 12.0209C14.5191 12.0209 13.5733 11.0209 13.5733 9.77589C13.6657 6.80036 17.6634 6.7991 17.7688 9.77589C17.7685 11.0209 16.8431 12.0209 15.6709 12.0209Z" fill="white"/>
</svg>
