<svg width="64" height="57" viewBox="0 0 64 57" fill="none" xmlns="http://www.w3.org/2000/svg">
<path d="M45.7638 14.0826C45.8441 13.8153 45.8385 13.5297 45.7477 13.2657C45.6569 13.0018 45.4856 12.773 45.2578 12.6115L42.4173 10.5816C41.5401 9.96525 40.8164 9.15554 40.3022 8.21509C39.788 7.27465 39.4971 6.22868 39.452 5.1581L39.3561 1.6701C39.3321 1.40632 39.23 1.15565 39.0628 0.95006C38.8956 0.744472 38.671 0.593291 38.4176 0.515803C38.1641 0.438316 37.8933 0.438037 37.6398 0.515C37.3862 0.591964 37.1614 0.742681 36.994 0.947924L34.9168 3.77152C34.2878 4.65513 33.4615 5.38015 32.5034 5.88915C31.5453 6.39815 30.4817 6.67715 29.3968 6.70405L25.9068 6.79855C25.6428 6.82246 25.3921 6.92441 25.1864 7.0914C24.9808 7.25838 24.8296 7.48283 24.7522 7.7361C24.6747 7.98937 24.6746 8.25998 24.7517 8.51341C24.8288 8.76684 24.9797 8.9916 25.1851 9.15901L28.0256 11.1889C28.91 11.8179 29.6357 12.644 30.1454 13.6017C30.6551 14.5595 30.9347 15.6226 30.962 16.7068L31.058 20.1948C31.082 20.4586 31.1841 20.7093 31.3513 20.9149C31.5184 21.1205 31.7431 21.2717 31.9965 21.3491C32.25 21.4266 32.5207 21.4269 32.7743 21.3499C33.0278 21.273 33.2527 21.1223 33.4201 20.917L35.4501 18.079C36.0791 17.1954 36.9053 16.4704 37.8634 15.9614C38.8215 15.4523 39.8852 15.1733 40.9701 15.1464L44.4601 15.052C44.7539 15.0566 45.0411 14.964 45.2768 14.7887C45.5126 14.6134 45.6838 14.3652 45.7638 14.0826ZM62.9902 37.2362L59.7843 34.9655C58.7972 34.2617 57.9872 33.3384 57.4178 32.2686C56.8485 31.1987 56.5354 30.0114 56.5033 28.8002L56.412 24.8749C56.4142 24.5559 56.3133 24.2447 56.1243 23.9876C55.9353 23.7305 55.6683 23.5412 55.3631 23.4479C55.0579 23.3546 54.7307 23.3622 54.4302 23.4697C54.1298 23.5772 53.8721 23.7787 53.6955 24.0443L51.4248 27.2476C50.7209 28.2337 49.7975 29.043 48.7272 29.6116C47.6569 30.1802 46.469 30.4926 45.2572 30.5241L41.3295 30.6139C41.0104 30.6116 40.6991 30.7123 40.4419 30.9011C40.1847 31.0899 39.9954 31.3566 39.9022 31.6616C39.8089 31.9666 39.8167 32.2936 39.9243 32.5939C40.032 32.8943 40.2338 33.1519 40.4996 33.3284L43.7056 35.5991C44.6926 36.303 45.5027 37.2262 46.0721 38.2961C46.6414 39.3659 46.9545 40.5532 46.9865 41.7644L47.0779 45.6898C47.0757 46.0087 47.1766 46.3199 47.3656 46.577C47.5546 46.8341 47.8216 47.0234 48.1268 47.1167C48.432 47.2101 48.7592 47.2024 49.0596 47.0949C49.3601 46.9875 49.6178 46.7859 49.7943 46.5203L52.0651 43.3171C52.769 42.3309 53.6924 41.5216 54.7627 40.9531C55.833 40.3845 57.0208 40.0721 58.2327 40.0405L62.1603 39.9508C62.4795 39.9531 62.7908 39.8523 63.048 39.6635C63.3052 39.4748 63.4945 39.208 63.5877 38.903C63.681 38.598 63.6732 38.271 63.5655 37.9707C63.4579 37.6704 63.2561 37.4128 62.9902 37.2362ZM30.7786 43.1586L26.5235 40.18C25.2331 39.2638 24.1742 38.0595 23.4309 36.6628C22.6876 35.2661 22.2805 33.7155 22.2419 32.1343L22.1498 26.944C22.1326 26.5408 21.9907 26.1529 21.7436 25.8337C21.4966 25.5144 21.1566 25.2796 20.7705 25.1616C20.3843 25.0435 19.9711 25.0481 19.5878 25.1746C19.2045 25.3011 18.8699 25.5433 18.6302 25.8679L15.6515 30.1194C14.7479 31.4016 13.5597 32.4573 12.1798 33.2041C10.7999 33.9509 9.26576 34.3685 7.6973 34.4243L2.50396 34.5142C2.1006 34.5313 1.7125 34.6729 1.39318 34.9197C1.07385 35.1665 0.839023 35.5062 0.721059 35.892C0.603096 36.2779 0.607809 36.6908 0.734547 37.074C0.861285 37.4571 1.10381 37.7916 1.42868 38.0313L5.68386 41.0099C6.97608 41.9293 8.03552 43.1377 8.77766 44.5387C9.51979 45.9398 9.92408 47.4946 9.95825 49.0792L10.0503 54.2696C10.0675 54.6727 10.2094 55.0606 10.4565 55.3799C10.7035 55.6991 11.0435 55.9339 11.4296 56.052C11.8158 56.17 12.2289 56.1655 12.6123 56.039C12.9956 55.9125 13.3302 55.6702 13.5699 55.3456L16.5486 51.0941C17.4648 49.8048 18.6694 48.747 20.0666 48.0047C21.4638 47.2624 23.0151 46.8562 24.5973 46.8182L29.7906 46.7282C30.194 46.7112 30.5821 46.5695 30.9014 46.3227C31.2207 46.076 31.4556 45.7362 31.5735 45.3504C31.6915 44.9646 31.6868 44.5516 31.56 44.1684C31.4333 43.7853 31.1908 43.4508 30.8659 43.2111L30.7786 43.1586Z" fill="url(#paint0_linear_338_1032)"/>
<defs>
<linearGradient id="paint0_linear_338_1032" x1="30.2082" y1="-1.9941" x2="73.0664" y2="12.4127" gradientUnits="userSpaceOnUse">
<stop stop-color="#00C2FF"/>
<stop offset="1" stop-color="#AA008F"/>
</linearGradient>
</defs>
</svg>
