<svg width="78" height="92" viewBox="0 0 78 92" fill="none" xmlns="http://www.w3.org/2000/svg">
<path d="M33.0961 3.41854L27.2246 6.84354L27.2149 13.0882L27.2053 19.3361L24.8663 20.8091C23.5797 21.6184 22.5048 22.2853 22.4824 22.2917C22.4599 22.295 20.0792 20.9256 17.1947 19.2455C14.3135 17.5654 11.9199 16.1733 11.8782 16.1507C11.8108 16.115 11.3071 16.4032 5.90391 19.5498L0.000244141 22.991V29.8572V36.7235L5.35846 39.8443L10.7167 42.9648L10.7103 45.9916L10.7007 49.0185L5.35846 52.1329L0.0162868 55.247L0.00666117 62.1134L0.000244141 68.9794L0.118959 69.0539C0.330722 69.1867 11.7595 75.8361 11.7948 75.8488C11.8301 75.8585 18.9947 71.6957 18.9947 71.6632C18.9947 71.6534 18.9273 71.5595 18.8439 71.4529C18.6065 71.1453 18.1573 70.4427 17.984 70.1029C17.8974 69.9312 17.814 69.7887 17.8011 69.7887C17.7915 69.7887 16.6942 70.4232 15.3659 71.197C14.0375 71.9707 12.9466 72.6053 12.9402 72.6053C12.937 72.6053 12.9306 70.5044 12.9306 67.934V63.2657L15.7156 61.5046C18.2728 59.886 18.5102 59.7308 18.6 59.5916C18.9241 59.0992 19.7134 58.2222 20.2621 57.7463C21.2054 56.9303 22.3765 56.2441 23.4 55.901L23.6182 55.8299L23.6086 55.5351L23.5989 55.244L18.2631 52.1329L12.9306 49.0249L12.937 45.9853L12.9466 42.9453L18.2824 39.8346L23.615 36.7235V30.4885V24.2503L25.9508 22.7773C27.2342 21.968 28.2994 21.2947 28.3219 21.2817C28.3411 21.272 28.6588 21.4371 29.0245 21.6508C29.3903 21.8644 29.6919 22.036 29.6951 22.0328C29.8684 21.6993 30.3946 20.9418 30.7122 20.5566C30.8502 20.3915 30.9657 20.2458 30.9721 20.2264C30.9753 20.2102 30.632 19.9933 30.2085 19.7473L29.4384 19.2941L29.4288 14.4155C29.4224 10.2006 29.4288 9.54019 29.4673 9.55313C29.493 9.56286 31.3989 10.7639 33.7025 12.2174L37.8929 14.8655V15.7525V16.6427L38.1591 16.6201C38.3067 16.6071 38.692 16.5974 39.0157 16.5974C39.3398 16.5974 39.7251 16.6071 39.8727 16.6201L40.1389 16.6427V15.7525V14.8622L44.2874 12.2465C46.5654 10.8092 48.4648 9.60817 48.5067 9.58228L48.5772 9.53693V14.4187V19.3038L47.8585 19.7181C47.4606 19.948 47.1142 20.1519 47.082 20.1746C47.0308 20.2134 47.0434 20.2361 47.2007 20.4239C47.5474 20.835 47.913 21.353 48.3046 21.9874C48.3335 22.0328 48.4296 21.9842 49.0007 21.6475L49.6681 21.2558L52.0425 22.7547L54.4166 24.2568V30.4917V36.7266L59.7525 39.8376L65.085 42.9487L65.0946 45.9853L65.1013 49.0219L59.9931 52.0001L54.8853 54.9783L54.7025 55.4153C54.5998 55.6548 54.5193 55.8523 54.5227 55.8557C54.526 55.8587 54.7377 55.9429 54.9943 56.0465C56.682 56.7166 58.2476 57.9468 59.3097 59.436L59.5344 59.7502L62.316 61.508L65.1013 63.2657V67.934C65.1013 70.5044 65.0946 72.6053 65.0883 72.6053C65.082 72.6053 64.0007 71.9804 62.685 71.2131C61.373 70.4491 60.2787 69.8148 60.2531 69.8051C60.2212 69.7954 60.1633 69.8762 60.0669 70.064C59.8874 70.4202 59.5118 71.0125 59.2455 71.362C59.1302 71.5109 59.0371 71.6471 59.0371 71.6598C59.0371 71.6957 66.1952 75.8619 66.2338 75.8488C66.2497 75.8424 68.9064 74.3017 72.1344 72.4208L77.9994 69.0056V62.1197V55.2372L72.76 52.1846C69.882 50.5076 67.4753 49.106 67.4208 49.0705L67.3151 49.0058V45.9853V42.9648L72.651 39.8571L77.9835 36.7494V29.8572V22.9651L72.1118 19.5433C68.8841 17.6592 66.2305 16.1183 66.2208 16.1183C66.2112 16.115 63.8178 17.5071 60.9013 19.2066C57.9847 20.9094 55.588 22.3047 55.5751 22.3079C55.5621 22.3112 54.4811 21.6378 53.1717 20.8123L50.791 19.3102V13.0753V6.83707L44.9293 3.42501C41.7079 1.5474 39.0447 0.00646196 39.0191 0.00322471C38.9901 -1.25524e-05 36.3272 1.53769 33.0961 3.41854ZM43.2576 5.04687C45.5579 6.38711 47.4576 7.49748 47.4769 7.5169C47.5088 7.54604 46.4757 8.20967 43.2673 10.233C39.266 12.7548 39.0127 12.9102 38.9419 12.8713C38.7561 12.771 30.5133 7.54926 30.5133 7.53632C30.5165 7.5007 39.0031 2.58332 39.0383 2.59951C39.0609 2.60598 40.9603 3.70989 43.2576 5.04687ZM16.3477 21.353C18.5006 22.6058 20.2749 23.6417 20.2877 23.6579C20.3134 23.6805 11.875 29.0317 11.8108 29.0317C11.782 29.0317 3.38844 23.7485 3.32747 23.6902C3.31144 23.6773 5.21729 22.5507 7.55632 21.1878L11.8108 18.7113L12.122 18.8894C12.2921 18.9898 14.1948 20.0969 16.3477 21.353ZM70.5332 21.2235C72.8242 22.5605 74.6946 23.6643 74.6883 23.6805C74.6787 23.7161 66.2531 29.0317 66.2112 29.0317C66.1537 29.0285 57.7504 23.7097 57.7504 23.6741C57.7504 23.6547 59.6531 22.5313 61.9793 21.1781C65.9898 18.8408 66.2112 18.7146 66.2883 18.7534C66.3332 18.7793 68.2422 19.8897 70.5332 21.2235ZM6.6515 28.4458L10.7167 31.0129V35.6745C10.7167 39.6079 10.7103 40.333 10.6718 40.3233C10.6493 40.3169 8.74346 39.2161 6.43653 37.8726L2.24621 35.4316V30.5468V25.6617L2.41626 25.7718C2.5061 25.8301 4.41196 27.0343 6.6515 28.4458ZM21.369 30.55V35.435L17.1691 37.8823C14.8621 39.2292 12.9627 40.3296 12.9498 40.3296C12.9402 40.3296 12.9306 38.2288 12.9306 35.6584L12.9338 30.9903L17.1434 28.3292C19.4599 26.866 21.3562 25.6682 21.3626 25.6682C21.3658 25.665 21.369 27.8631 21.369 30.55ZM75.7856 30.5468V35.4286L71.5952 37.8726C69.2916 39.2161 67.3856 40.3169 67.36 40.3233C67.3214 40.333 67.3151 39.6595 67.3214 35.6681L67.3311 31L71.5504 28.3325C73.8699 26.866 75.7726 25.6682 75.7793 25.665C75.7823 25.665 75.7856 27.8631 75.7856 30.5468ZM60.8853 28.3389C63.1889 29.7925 65.0787 30.9967 65.0883 31.0194C65.0946 31.0388 65.0979 33.1463 65.0946 35.7006L65.085 40.3461L60.9751 37.9504C58.7163 36.6327 56.8136 35.5225 56.7495 35.4836L56.6308 35.4125V30.5532C56.6308 27.2577 56.6404 25.6974 56.6627 25.6974C56.682 25.6974 58.5814 26.8854 60.8853 28.3389ZM16.0942 53.4664C18.4107 54.8133 20.307 55.9238 20.3102 55.9332C20.3102 55.9593 11.8686 61.2813 11.8204 61.2876C11.7563 61.2943 3.30502 55.9526 3.33389 55.9238C3.40768 55.8493 11.798 50.9835 11.8333 50.9966C11.8589 51.0063 13.7744 52.1165 16.0942 53.4664ZM70.4753 53.4537C72.7889 54.8036 74.6883 55.9141 74.6979 55.9268C74.7139 55.9429 66.8561 60.9348 66.3109 61.2521L66.2082 61.3138L61.973 58.6397C59.6434 57.1667 57.7344 55.9526 57.7311 55.9399C57.7214 55.9073 66.2015 50.9772 66.2401 50.9933C66.2564 50.9996 68.1654 52.1067 70.4753 53.4537ZM6.56169 60.6534L10.7007 63.2691L10.7103 67.937C10.7135 70.5044 10.7071 72.6053 10.6975 72.6053C10.6878 72.6053 8.78199 71.5012 6.4622 70.1512L2.24621 67.7009V62.819V57.9371L2.33605 57.9857C2.38417 58.0149 4.28684 59.2126 6.56169 60.6534ZM75.7856 62.819L75.7823 67.7009L71.5696 70.1512C69.2531 71.5012 67.347 72.6053 67.3344 72.6053C67.3248 72.6053 67.3181 70.5044 67.3214 67.937L67.3311 63.2691L71.547 60.6048C73.8669 59.1381 75.7696 57.9405 75.776 57.9405C75.7823 57.9405 75.7856 60.1352 75.7856 62.819Z" fill="white"/>
<path d="M38.2618 18.8538C38.2106 18.8602 37.9922 18.8894 37.7805 18.9185C36.8052 19.048 35.6919 19.4332 34.8127 19.9415C31.6555 21.7705 30.0031 25.2927 30.6127 28.9054C30.8854 30.5176 31.6362 32.0359 32.7945 33.3114C33.0833 33.6319 33.5838 34.0753 33.9687 34.357C34.1163 34.4637 34.2223 34.5609 34.2094 34.574C34.1967 34.5837 34.0492 34.6451 33.8823 34.7065C32.6405 35.1599 31.2672 35.9142 30.1443 36.7624C29.2908 37.4064 28.2673 38.384 27.632 39.1645C25.9732 41.2006 24.8823 43.5506 24.4363 46.0436C24.1957 47.3868 24.1315 48.889 24.2727 49.8797C24.6481 52.4857 26.2684 54.7418 28.6202 55.9334C29.3357 56.296 30.2116 56.571 31.0426 56.6971C31.5207 56.7686 32.6886 56.7783 33.1442 56.7136C34.6747 56.4999 35.9934 55.9334 37.1549 54.9913C38.5988 53.8195 39.632 52.1003 39.975 50.2909C40.1163 49.5396 40.1226 49.4102 40.1226 46.4967V43.7126L40.0202 43.4956C39.9657 43.3793 39.8597 43.224 39.7859 43.1525C39.2404 42.6152 38.3229 42.79 37.9955 43.4956L37.9088 43.6804L37.8895 46.5775C37.8705 49.6822 37.8769 49.5688 37.7003 50.2356C37.1452 52.3301 35.416 53.9714 33.2982 54.4084C30.3913 55.0138 27.4748 53.2269 26.647 50.3328C26.4769 49.7405 26.432 49.3746 26.4352 48.6009C26.4384 43.881 29.1913 39.4653 33.4492 37.3483C36.4651 35.8461 39.8274 35.6194 43.0265 36.7007C44.9578 37.3547 46.5591 38.3776 48.035 39.8959C50.0371 41.9612 51.2467 44.5866 51.5452 47.5166C51.6157 48.1931 51.5997 49.6758 51.5163 50.3003C51.0639 53.677 49.4274 56.6002 46.8094 58.7011C45.144 60.0382 43.0874 60.9512 40.9666 61.2876C40.4244 61.3751 40.0425 61.4106 39.388 61.4334C38.7913 61.4559 38.7301 61.4626 38.5633 61.5401C38.31 61.6568 38.1368 61.8282 38.0148 62.0777C37.9184 62.2719 37.9088 62.3202 37.9121 62.5697C37.9121 62.8028 37.928 62.8739 38.0052 63.0359C38.1205 63.2818 38.297 63.4565 38.5443 63.5766C38.7398 63.6705 38.7494 63.6705 39.3079 63.6705C40.1003 63.6705 41.0244 63.5766 41.8714 63.4082C42.2756 63.327 43.1582 63.1037 43.3985 63.0228C43.4949 62.9873 43.572 62.9712 43.572 62.9809C43.572 62.9907 43.0747 63.7577 42.4681 64.6867C39.7762 68.8046 39.2244 69.6528 39.1347 69.7983C39.0832 69.8825 39.0287 69.9506 39.0127 69.9442C38.9871 69.9345 38.6115 69.371 37.2287 67.2474C34.3699 62.8609 32.9999 60.7794 32.7817 60.5011C32.0758 59.5945 31.1999 58.8825 30.1443 58.3613C29.371 57.9759 28.6908 57.7623 27.8181 57.6265C27.3079 57.5487 26.1529 57.5487 25.6363 57.6265C24.8951 57.7429 24.2342 57.937 23.5828 58.2318C20.6374 59.5687 18.8246 62.5956 19.0299 65.8361C19.1519 67.7783 19.9315 69.5102 21.308 70.8927C22.4855 72.0776 23.9839 72.8252 25.6844 73.0811C26.0502 73.1361 26.7304 73.1395 38.9838 73.1395C52.8862 73.1395 52.084 73.1488 52.9247 72.9711C54.0446 72.738 55.2124 72.1712 56.1461 71.4139C57.7117 70.1481 58.7545 68.225 58.9696 66.2214C59.0145 65.8166 59.0145 64.8906 58.9696 64.4861C58.7834 62.7478 57.991 61.0934 56.7428 59.8343C55.3117 58.3905 53.3193 57.552 51.3142 57.552H50.9868L51.2597 57.1472C51.6735 56.5355 51.9494 56.0498 52.3151 55.3019C52.9184 54.0653 53.2714 53.0263 53.5344 51.7086C54.0094 49.3391 53.9096 46.882 53.2455 44.5705C52.2124 40.9772 49.8542 37.8856 46.6618 35.9337C45.8916 35.4641 44.3452 34.7293 43.8832 34.6126C43.835 34.6029 43.7964 34.5804 43.8031 34.5673C43.8094 34.5512 43.944 34.4412 44.1079 34.3181C44.9515 33.6836 45.7088 32.8549 46.2606 31.9614C47.8714 29.3425 47.9675 25.9984 46.5079 23.3277C45.6316 21.7284 44.3741 20.508 42.7859 19.7214C42.1506 19.4073 41.7847 19.2681 41.1943 19.1095C40.4564 18.9153 40.0329 18.8602 39.1443 18.8505C38.7109 18.844 38.3163 18.8473 38.2618 18.8538ZM39.6513 21.1037C40.6907 21.217 41.6693 21.5763 42.5293 22.1622C43.9088 23.101 44.8458 24.519 45.1955 26.1926C45.3079 26.7332 45.3365 27.698 45.2597 28.2677C45.0576 29.7083 44.4223 30.974 43.3922 31.9776C42.0798 33.2595 40.4115 33.8714 38.5699 33.755C37.1037 33.6641 35.7272 33.0426 34.6555 31.997C33.8886 31.246 33.3657 30.4172 33.048 29.4558C32.2844 27.1541 32.8555 24.6776 34.5494 22.9521C35.8811 21.5957 37.7997 20.8997 39.6513 21.1037ZM27.6769 59.8826C28.4277 60.0121 29.2844 60.3716 29.9036 60.815C30.3111 61.1065 30.9272 61.7279 31.2095 62.1327C31.3346 62.3108 32.5378 64.1461 33.8823 66.2117C35.2299 68.277 36.4651 70.174 36.632 70.4265C36.7955 70.6791 36.9301 70.8927 36.9301 70.9024C36.9301 70.9346 27.17 70.9219 26.5347 70.8893C25.893 70.8571 25.5336 70.7954 25.0299 70.6304C24.2021 70.3554 23.4705 69.8956 22.8385 69.248C22.1967 68.5943 21.7989 67.9467 21.5165 67.0954C21.3112 66.477 21.2567 66.1047 21.2567 65.3538C21.2567 64.7903 21.2695 64.6351 21.3305 64.3241C21.6738 62.6184 22.7294 61.1906 24.2213 60.4202C24.9048 60.0671 25.524 59.8893 26.3582 59.8051C26.6085 59.779 27.3208 59.8213 27.6769 59.8826ZM51.757 59.8179C53.0434 59.9474 54.1826 60.4719 55.084 61.3523C55.2862 61.5498 55.5557 61.851 55.684 62.0224C56.9356 63.6963 57.1407 65.9494 56.2166 67.8075C55.9054 68.4356 55.5943 68.8596 55.084 69.3516C54.3301 70.0834 53.419 70.569 52.3889 70.7924C51.879 70.9024 51.0832 70.9185 45.9976 70.9219C42.0895 70.9219 41.0982 70.9121 41.1109 70.8796C41.1238 70.8441 45.85 63.5893 46.5654 62.505C46.9121 61.9771 47.1109 61.7246 47.4253 61.4076C48.1762 60.6533 49.1196 60.1415 50.1654 59.9182C50.7431 59.7954 51.2211 59.7662 51.757 59.8179Z" fill="white"/>
<path d="M27.2085 80.2581V85.1269L33.1122 88.5616L39.0127 91.9996L44.8937 88.5747L50.7751 85.1497L50.7847 80.2678L50.791 75.3893H49.6841H48.5772V79.6105V83.8286L44.3772 86.2793C42.0673 87.6262 40.1679 88.7266 40.1582 88.7266C40.1486 88.7266 40.1389 86.6257 40.1389 84.0553L40.1419 79.3871L43.2962 77.3962L46.4501 75.4054L44.3645 75.3956L42.279 75.3893L40.6652 76.4089C39.7763 76.969 39.032 77.4288 39.0127 77.4288C38.9935 77.4288 38.2492 76.969 37.3633 76.4089L35.7528 75.3893L33.6609 75.3956L31.5689 75.4054L34.723 77.3962L37.8769 79.3904L37.8865 84.0617C37.8929 88.1377 37.8865 88.73 37.848 88.7169C37.7901 88.6944 29.7111 83.9906 29.5443 83.884L29.4224 83.8061V79.5977V75.3893H28.3155H27.2085V80.2581Z" fill="white"/>
</svg>
