<svg width="23465" height="27431" viewBox="0 0 23465 27431" fill="none" xmlns="http://www.w3.org/2000/svg">
<path d="M9956.39 1019.28L8190.02 2040.49L8187.12 3902.42L8184.23 5765.32L7480.58 6204.5C7093.52 6445.81 6770.17 6644.64 6763.41 6646.57C6756.65 6647.54 6040.45 6239.25 5172.71 5738.29C4305.93 5237.34 3585.87 4822.29 3573.32 4815.53C3553.05 4804.91 3401.51 4890.82 1776.06 5829.02L0.0390625 6855.06V8902.32V10949.6L1611.97 11880.1L3223.91 12810.5L3221.98 13713L3219.08 14615.5L1611.97 15544.1L4.86522 16472.6L1.96952 18519.9L0.0390625 20567.1L35.7526 20589.3C99.4578 20628.9 3537.61 22611.5 3548.23 22615.3C3558.84 22618.2 5714.2 21377 5714.2 21367.3C5714.2 21364.4 5693.93 21336.4 5668.84 21304.6C5597.41 21212.9 5462.28 21003.4 5410.16 20902.1C5384.1 20850.9 5359 20808.4 5355.14 20808.4C5352.24 20808.4 5022.13 20997.6 4622.53 21228.3C4222.92 21459 3894.74 21648.2 3892.81 21648.2C3891.85 21648.2 3889.92 21021.8 3889.92 20255.4V18863.5L4727.74 18338.4C5497.03 17855.8 5568.45 17809.5 5595.48 17768C5692.97 17621.2 5930.42 17359.7 6095.47 17217.8C6379.25 16974.5 6731.56 16769.9 7039.47 16667.6L7105.1 16646.4L7102.21 16558.5L7099.31 16471.7L5494.13 15544.1L3889.92 14617.4L3891.85 13711.1L3894.74 12804.7L5499.92 11877.2L7104.14 10949.6V9090.54V7230.54L7806.82 6791.36C8192.92 6550.05 8513.37 6349.28 8520.13 6345.42C8525.92 6342.53 8621.48 6391.75 8731.51 6455.46C8841.55 6519.16 8932.28 6570.32 8933.25 6569.35C8985.37 6469.94 9143.67 6244.07 9239.23 6129.21C9280.73 6079.98 9315.48 6036.55 9317.41 6030.76C9318.38 6025.93 9215.1 5961.26 9087.69 5887.9L8856.03 5752.77L8853.13 4298.17C8851.2 3041.44 8853.13 2844.53 8864.72 2848.39C8872.44 2851.29 9445.79 3209.39 10138.8 3642.78L11399.4 4432.33V4696.81V4962.25L11479.5 4955.49C11523.9 4951.63 11639.8 4948.73 11737.2 4948.73C11834.7 4948.73 11950.6 4951.63 11995 4955.49L12075.1 4962.25V4696.81V4431.37L13323.1 3651.46C14008.4 3222.9 14579.8 2864.8 14592.4 2857.08L14613.6 2843.56V4299.13V5755.67L14397.4 5879.21C14277.7 5947.75 14173.5 6008.56 14163.8 6015.31C14148.4 6026.9 14152.2 6033.65 14199.5 6089.64C14303.8 6212.22 14413.8 6366.66 14531.6 6555.84C14540.3 6569.35 14569.2 6554.88 14741 6454.49L14941.8 6337.7L15656.1 6784.6L16370.3 7232.47V9091.5V10950.5L17975.5 11878.1L19579.7 12805.7L19582.6 13711.1L19584.6 14616.5L18047.9 15504.5L16511.3 16392.5L16456.3 16522.8C16425.4 16594.2 16401.2 16653.1 16402.2 16654.1C16403.2 16655 16466.9 16680.1 16544.1 16711C17051.8 16910.8 17522.8 17277.6 17842.3 17721.6L17909.9 17815.3L18746.7 18339.4L19584.6 18863.5V20255.4C19584.6 21021.8 19582.6 21648.2 19580.7 21648.2C19578.8 21648.2 19253.5 21461.9 18857.7 21233.1C18463 21005.3 18133.8 20816.2 18126.1 20813.3C18116.5 20810.4 18099.1 20834.5 18070.1 20890.5C18016.1 20996.7 17903.1 21173.3 17823 21277.5C17788.3 21321.9 17760.3 21362.5 17760.3 21366.3C17760.3 21377 19913.7 22619.2 19925.3 22615.3C19930.1 22613.4 20729.3 22154 21700.4 21593.2L23464.8 20574.9V18521.8V16469.7L21888.6 15559.5C21022.8 15059.5 20298.8 14641.6 20282.4 14631L20250.6 14611.7V13711.1V12810.5L21855.8 11883.9L23460 10957.3V8902.32V6847.34L21693.6 5827.09C20722.6 5265.33 19924.3 4805.88 19921.4 4805.88C19918.5 4804.91 19198.5 5219.96 18321.1 5726.71C17443.7 6234.42 16722.7 6650.43 16718.8 6651.4C16714.9 6652.36 16389.7 6451.6 15995.8 6205.46L15279.6 5757.6V3898.56V2038.56L13516.2 1021.21C12547.1 461.376 11745.9 1.92587 11738.2 0.96064C11729.5 -0.00459071 10928.4 458.48 9956.39 1019.28ZM13013.3 1504.79C13705.3 1904.4 14276.8 2235.47 14282.6 2241.26C14292.2 2249.95 13981.4 2447.82 13016.2 3051.09C11812.5 3803 11736.3 3849.33 11715 3837.75C11659.1 3807.83 9179.38 2250.91 9179.38 2247.05C9180.35 2236.43 11733.4 770.249 11744 775.076C11750.8 777.006 12322.2 1106.15 13013.3 1504.79ZM4917.89 6366.66C5565.56 6740.2 6099.33 7049.07 6103.19 7053.9C6110.91 7060.66 3572.36 8656.18 3553.05 8656.18C3544.37 8656.18 1019.32 7080.93 1000.98 7063.55C996.157 7059.69 1569.5 6723.79 2273.16 6317.43L3553.05 5579.03L3646.68 5632.12C3697.84 5662.04 4270.22 5992.15 4917.89 6366.66ZM21218.7 6328.05C21907.9 6726.69 22470.6 7055.83 22468.7 7060.66C22465.8 7071.27 19931.1 8656.18 19918.5 8656.18C19901.2 8655.22 17373.2 7069.34 17373.2 7058.73C17373.2 7052.94 17945.6 6718 18645.4 6314.53C19851.9 5617.64 19918.5 5579.99 19941.7 5591.58C19955.2 5599.3 20529.5 5930.37 21218.7 6328.05ZM2000.96 8481.48L3223.91 9246.9V10636.8C3223.91 11809.6 3221.98 12025.8 3210.4 12022.9C3203.64 12021 2630.29 11692.8 1936.29 11292.2L675.7 10564.4V9107.91V7651.38L726.858 7684.2C753.884 7701.57 1327.23 8060.64 2000.96 8481.48ZM6428.47 9108.88V10565.4L5164.99 11295.1C4470.99 11696.7 3899.57 12024.8 3895.71 12024.8C3892.81 12024.8 3889.92 11398.4 3889.92 10632L3890.88 9240.15L5157.27 8446.73C5854.16 8010.44 6424.61 7653.31 6426.54 7653.31C6427.51 7652.34 6428.47 8307.74 6428.47 9108.88ZM22798.8 9107.91V10563.5L21538.2 11292.2C20845.2 11692.8 20271.8 12021 20264.1 12022.9C20252.5 12025.8 20250.6 11825 20252.5 10634.9L20255.4 9243.04L21524.7 8447.69C22222.5 8010.44 22794.9 7653.31 22796.9 7652.34C22797.8 7652.34 22798.8 8307.74 22798.8 9107.91ZM18316.3 8449.62C19009.3 8883.01 19577.8 9242.08 19580.7 9248.83C19582.6 9254.63 19583.6 9882.99 19582.6 10644.6L19579.7 12029.7L18343.3 11315.4C17663.8 10922.5 17091.4 10591.5 17072.1 10579.9L17036.4 10558.7V9109.84C17036.4 8127.24 17039.3 7662 17046 7662C17051.8 7662 17623.2 8016.24 18316.3 8449.62ZM4841.64 15941.7C5538.53 16343.3 6108.98 16674.4 6109.95 16677.2C6109.95 16685 3570.43 18271.8 3555.95 18273.7C3536.64 18275.7 994.227 16683 1002.91 16674.4C1025.11 16652.2 3549.19 15201.4 3559.81 15205.3C3567.53 15208.2 4143.77 15539.2 4841.64 15941.7ZM21201.3 15937.9C21897.3 16340.4 22468.7 16671.5 22471.6 16675.3C22476.4 16680.1 20112.5 18168.5 19948.5 18263.1L19917.6 18281.5L18643.5 17484.2C17942.7 17045 17368.4 16683 17367.4 16679.2C17364.5 16669.5 19915.6 15199.5 19927.2 15204.3C19932.1 15206.2 20506.4 15536.3 21201.3 15937.9ZM1973.94 18084.6L3219.08 18864.5L3221.98 20256.3C3222.94 21021.8 3221.01 21648.2 3218.12 21648.2C3215.22 21648.2 2641.88 21319 1944.01 20916.5L675.7 20185.9V18730.3V17274.7L702.727 17289.2C717.205 17297.9 1289.59 17655 1973.94 18084.6ZM22798.8 18730.3L22797.8 20185.9L21530.5 20916.5C20833.6 21319 20260.2 21648.2 20256.4 21648.2C20253.5 21648.2 20251.5 21021.8 20252.5 20256.3L20255.4 18864.5L21523.7 18070.1C22221.6 17632.8 22794 17275.7 22795.9 17275.7C22797.8 17275.7 22798.8 17930.1 22798.8 18730.3Z" fill="white"/>
<path d="M11510.4 5621.5C11495 5623.43 11429.3 5632.12 11365.6 5640.8C11072.2 5679.41 10737.3 5794.27 10472.8 5945.82C9523 6491.17 9025.91 7541.34 9209.3 8618.54C9291.35 9099.22 9517.21 9551.92 9865.66 9932.22C9952.53 10027.8 10103.1 10160 10218.9 10244C10263.3 10275.8 10295.2 10304.8 10291.3 10308.7C10287.5 10311.6 10243.1 10329.9 10192.9 10348.2C9819.33 10483.4 9406.21 10708.3 9068.38 10961.2C8811.63 11153.2 8503.72 11444.7 8312.6 11677.4C7813.58 12284.5 7485.4 12985.2 7351.23 13728.5C7278.84 14129 7259.54 14576.9 7302.01 14872.3C7414.94 15649.3 7902.38 16322 8609.9 16677.3C8825.14 16785.4 9088.65 16867.4 9338.64 16905C9482.46 16926.3 9833.81 16929.2 9970.87 16909.9C10431.3 16846.2 10828 16677.3 11177.4 16396.4C11611.8 16047 11922.6 15534.4 12025.8 14994.9C12068.3 14770.9 12070.2 14732.3 12070.2 13863.6V13033.5L12039.4 12968.8C12023 12934.1 11991.1 12887.8 11968.9 12866.5C11804.8 12706.3 11528.8 12758.4 11430.3 12968.8L11404.2 13023.9L11398.4 13887.7C11392.7 14813.4 11394.6 14779.6 11341.5 14978.4C11174.5 15602.9 10654.3 16092.3 10017.2 16222.6C9142.7 16403.1 8265.31 15870.3 8016.28 15007.4C7965.12 14830.8 7951.61 14721.7 7952.57 14491C7953.54 13083.7 8781.71 11767.1 10062.6 11135.9C10969.9 10688 11981.4 10620.4 12943.8 10942.8C13524.8 11137.8 14006.5 11442.8 14450.5 11895.5C15052.8 12511.3 15416.7 13294.1 15506.5 14167.7C15527.7 14369.4 15522.9 14811.5 15497.8 14997.7C15361.7 16004.5 14869.4 16876.1 14081.8 17502.5C13580.8 17901.2 12962.1 18173.4 12324.1 18273.7C12161 18299.8 12046.1 18310.4 11849.2 18317.2C11669.7 18323.9 11651.3 18325.9 11601.1 18349C11524.9 18383.8 11472.8 18434.9 11436.1 18509.3C11407.1 18567.2 11404.2 18581.6 11405.2 18656C11405.2 18725.5 11410 18746.7 11433.2 18795C11467.9 18868.3 11521 18920.4 11595.4 18956.2C11654.2 18984.2 11657.1 18984.2 11825.1 18984.2C12063.5 18984.2 12341.5 18956.2 12596.3 18906C12717.9 18881.8 12983.4 18815.2 13055.7 18791.1C13084.7 18780.5 13107.9 18775.7 13107.9 18778.6C13107.9 18781.5 12958.3 19010.2 12775.8 19287.2C11966 20515 11800 20767.9 11773 20811.3C11757.5 20836.4 11741.1 20856.7 11736.3 20854.8C11728.6 20851.9 11615.6 20683.9 11199.6 20050.7C10339.6 18742.8 9927.44 18122.2 9861.8 18039.2C9649.45 17768.9 9385.94 17556.6 9068.38 17401.2C8835.76 17286.3 8631.13 17222.6 8368.59 17182.1C8215.12 17158.9 7867.63 17158.9 7712.23 17182.1C7489.26 17216.8 7290.43 17274.7 7094.48 17362.6C6208.4 17761.2 5663.05 18663.7 5724.82 19629.9C5761.5 20209 5996.05 20725.4 6410.13 21137.6C6764.37 21490.9 7215.14 21713.8 7726.71 21790.1C7836.75 21806.5 8041.37 21807.5 11727.6 21807.5C15909.9 21807.5 15668.6 21810.3 15921.5 21757.3C16258.4 21687.8 16609.7 21518.8 16890.6 21293C17361.6 20915.6 17675.3 20342.2 17740 19744.8C17753.5 19624.1 17753.5 19348 17740 19227.4C17684 18709.1 17445.6 18215.8 17070.1 17840.4C16639.6 17409.9 16040.2 17159.9 15437 17159.9H15338.5L15420.6 17039.2C15545.1 16856.8 15628.1 16712 15738.1 16489C15919.6 16120.3 16025.8 15810.5 16104.9 15417.6C16247.8 14711.1 16217.8 13978.5 16018 13289.3C15707.2 12217.9 14997.8 11296.1 14037.4 10714.1C13805.7 10574.1 13340.5 10355 13201.5 10320.2C13187 10317.3 13175.4 10310.6 13177.4 10306.7C13179.3 10301.9 13219.8 10269.1 13269.1 10232.4C13522.9 10043.2 13750.7 9796.12 13916.7 9529.72C14401.3 8748.85 14430.2 7751.76 13991.1 6955.45C13727.5 6478.62 13349.2 6114.73 12871.4 5880.18C12680.3 5786.55 12570.2 5745.05 12392.6 5697.75C12170.6 5639.84 12043.2 5623.43 11775.9 5620.53C11645.5 5618.6 11526.8 5619.57 11510.4 5621.5ZM11928.4 6292.33C12241.1 6326.12 12535.5 6433.26 12794.2 6607.96C13209.2 6887.88 13491.1 7310.65 13596.3 7809.68C13630.1 7970.87 13638.7 8258.51 13615.6 8428.39C13554.8 8857.92 13363.7 9235.32 13053.8 9534.54C12659 9916.77 12157.1 10099.2 11603.1 10064.5C11162 10037.4 10747.9 9852.1 10425.5 9540.33C10194.8 9316.4 10037.5 9069.3 9941.91 8782.63C9712.19 8096.35 9884 7357.95 10393.6 6843.48C10794.2 6439.05 11371.4 6231.52 11928.4 6292.33ZM8326.12 17854.8C8551.98 17893.4 8809.7 18000.6 8995.99 18132.8C9118.57 18219.7 9303.9 18405 9388.84 18525.7C9426.48 18578.8 9788.44 19126 10192.9 19741.9C10598.3 20357.7 10969.9 20923.3 11020.1 20998.6C11069.3 21073.9 11109.8 21137.6 11109.8 21140.5C11109.8 21150.1 8173.61 21146.3 7982.5 21136.6C7789.45 21127 7681.34 21108.6 7529.8 21059.4C7280.77 20977.4 7060.7 20840.3 6870.55 20647.2C6677.5 20452.3 6557.82 20259.2 6472.87 20005.4C6411.1 19821 6394.69 19710 6394.69 19486.1C6394.69 19318.1 6398.55 19271.8 6416.89 19179.1C6520.17 18670.5 6837.73 18244.8 7286.56 18015.1C7492.16 17909.8 7678.45 17856.8 7929.41 17831.7C8004.7 17823.9 8218.98 17836.5 8326.12 17854.8ZM15570.2 17835.5C15957.2 17874.1 16299.9 18030.5 16571.1 18293C16631.9 18351.9 16713 18441.7 16751.6 18492.8C17128.1 18991.9 17189.8 19663.7 16911.8 20217.7C16818.2 20405 16724.6 20531.4 16571.1 20678.1C16344.3 20896.3 16070.2 21041.1 15760.3 21107.7C15606.9 21140.5 15367.5 21145.3 13837.6 21146.3C12661.9 21146.3 12363.7 21143.4 12367.5 21133.7C12371.4 21123.1 13793.2 18960 14008.4 18636.7C14112.7 18479.3 14172.5 18404 14267.1 18309.5C14493 18084.6 14776.8 17932 15091.4 17865.4C15265.2 17828.8 15409 17820.1 15570.2 17835.5Z" fill="white"/>
<path d="M8185.19 23930V25381.7L9961.22 26405.8L11736.3 27430.9L13505.5 26409.7L15274.8 25388.5L15277.7 23932.9L15279.6 22478.3H14946.6H14613.6V23736.9V24994.6L13350.1 25725.3C12655.2 26126.9 12083.8 26455 12080.9 26455C12078 26455 12075.1 25828.6 12075.1 25062.2L12076 23670.3L13024.9 23076.7L13973.7 22483.1L13346.3 22480.2L12718.9 22478.3L12233.4 22782.3C11966 22949.3 11742.1 23086.4 11736.3 23086.4C11730.5 23086.4 11506.6 22949.3 11240.1 22782.3L10755.6 22478.3L10126.3 22480.2L9496.94 22483.1L10445.8 23076.7L11394.6 23671.3L11397.5 25064.1C11399.4 26279.4 11397.5 26456 11385.9 26452.1C11368.5 26445.4 8938.07 25042.9 8887.88 25011.1L8851.2 24987.9V23733.1V22478.3H8518.2H8185.19V23930Z" fill="white"/>
</svg>
